<svg width="53" height="53" viewBox="0 0 53 53" fill="none" xmlns="http://www.w3.org/2000/svg">
<path d="M38.336 14.1351C41.6 14.1351 44.224 15.1431 46.208 17.1591C48.224 19.1431 49.232 21.9271 49.232 25.5111V41.1111H42.512V26.4231C42.512 24.3431 41.984 22.7591 40.928 21.6711C39.872 20.5511 38.432 19.9911 36.608 19.9911C34.784 19.9911 33.328 20.5511 32.24 21.6711C31.184 22.7591 30.656 24.3431 30.656 26.4231V41.1111H23.936V26.4231C23.936 24.3431 23.408 22.7591 22.352 21.6711C21.296 20.5511 19.856 19.9911 18.032 19.9911C16.176 19.9911 14.704 20.5511 13.616 21.6711C12.56 22.7591 12.032 24.3431 12.032 26.4231V41.1111H5.312V14.5191H12.032V17.7351C12.896 16.6151 14 15.7351 15.344 15.0951C16.72 14.4551 18.224 14.1351 19.856 14.1351C21.936 14.1351 23.792 14.5831 25.424 15.4791C27.056 16.3431 28.32 17.5911 29.216 19.2231C30.08 17.6871 31.328 16.4551 32.96 15.5271C34.624 14.5991 36.416 14.1351 38.336 14.1351Z" fill="#2804BB"/>
<path d="M18.8 10.9C22.1 10.9 24.7667 11.95 26.8 14.05C28.8333 16.1167 29.85 19.0167 29.85 22.75V39H22.85V23.7C22.85 21.5 22.3 19.8167 21.2 18.65C20.1 17.45 18.6 16.85 16.7 16.85C14.7667 16.85 13.2333 17.45 12.1 18.65C11 19.8167 10.45 21.5 10.45 23.7V39H3.45V11.3H10.45V14.75C11.3833 13.55 12.5667 12.6167 14 11.95C15.4667 11.25 17.0667 10.9 18.8 10.9Z" fill="#0366DA"/>
<circle cx="7" cy="17" r="1.5" fill="#BE00B6" stroke="white"/>
</svg>
