<svg width="64" height="64" viewBox="0 0 64 64" fill="none" xmlns="http://www.w3.org/2000/svg">
<rect width="64" height="64" rx="32" fill="#0366DA"/>
<path fill-rule="evenodd" clip-rule="evenodd" d="M48.875 36.6598C48.875 30.8503 45.6665 25.7405 40.7007 22.964L43.0385 18.7565C43.2557 18.3651 43.3085 17.9033 43.1853 17.4729C43.0621 17.0425 42.773 16.6787 42.3815 16.4615C41.99 16.2443 41.5283 16.1915 41.0979 16.3147C40.6675 16.4379 40.3037 16.7271 40.0865 17.1185L37.589 21.6118C35.7822 21.0355 33.8965 20.7447 32 20.75C30.1028 20.7445 28.2163 21.0352 26.4087 21.6118L23.9113 17.1185C23.8091 16.9152 23.6669 16.7346 23.4932 16.5877C23.3195 16.4407 23.1179 16.3304 22.9004 16.2634C22.683 16.1963 22.4543 16.174 22.228 16.1976C22.0017 16.2213 21.7825 16.2904 21.5836 16.4009C21.3847 16.5115 21.2102 16.6611 21.0706 16.8408C20.9311 17.0204 20.8293 17.2265 20.7714 17.4466C20.7135 17.6666 20.7007 17.8961 20.7337 18.1212C20.7668 18.3463 20.845 18.5624 20.9638 18.7565L23.2992 22.964C18.3335 25.7405 15.125 30.8503 15.125 36.6575C15.125 38.4868 15.5052 40.2643 16.5065 41.819C17.5145 43.3873 18.959 44.4245 20.5452 45.104C23.5107 46.3775 27.545 46.625 32 46.625C36.455 46.625 40.4893 46.3775 43.4525 45.1063C45.0433 44.4268 46.4855 43.3895 47.4935 41.8213C48.497 40.2665 48.875 38.489 48.875 36.6598ZM18.5 36.6598C18.5 42.125 23 43.25 32 43.25C41 43.25 45.5 42.125 45.5 36.6598C45.5 29.9098 39.875 24.125 32 24.125C24.125 24.125 18.5 29.9075 18.5 36.6575V36.6598ZM37.625 39.3125C37.1774 39.3125 36.7482 39.1347 36.4318 38.8183C36.1153 38.5018 35.9375 38.0726 35.9375 37.625V34.25C35.9375 33.8025 36.1153 33.3732 36.4318 33.0568C36.7482 32.7403 37.1774 32.5625 37.625 32.5625C38.0726 32.5625 38.5018 32.7403 38.8182 33.0568C39.1347 33.3732 39.3125 33.8025 39.3125 34.25V37.625C39.3125 38.0726 39.1347 38.5018 38.8182 38.8183C38.5018 39.1347 38.0726 39.3125 37.625 39.3125ZM24.6875 37.625C24.6875 38.0726 24.8653 38.5018 25.1818 38.8183C25.4982 39.1347 25.9274 39.3125 26.375 39.3125C26.8226 39.3125 27.2518 39.1347 27.5682 38.8183C27.8847 38.5018 28.0625 38.0726 28.0625 37.625V34.25C28.0625 33.8025 27.8847 33.3732 27.5682 33.0568C27.2518 32.7403 26.8226 32.5625 26.375 32.5625C25.9274 32.5625 25.4982 32.7403 25.1818 33.0568C24.8653 33.3732 24.6875 33.8025 24.6875 34.25V37.625Z" fill="white"/>
</svg>
