<svg width="36" height="36" viewBox="0 0 36 36" fill="none" xmlns="http://www.w3.org/2000/svg">
<path fill-rule="evenodd" clip-rule="evenodd" d="M34.875 22.6597C34.875 16.8502 31.6665 11.7405 26.7007 8.964L29.0385 4.7565C29.2557 4.36504 29.3085 3.90332 29.1853 3.47293C29.0621 3.04253 28.773 2.67871 28.3815 2.4615C27.99 2.24429 27.5283 2.19148 27.0979 2.31469C26.6675 2.4379 26.3037 2.72704 26.0865 3.1185L23.589 7.61175C21.7822 7.03545 19.8965 6.7447 18 6.75C16.1028 6.74447 14.2163 7.03522 12.4087 7.61175L9.91125 3.1185C9.80912 2.91518 9.66692 2.73461 9.49321 2.58765C9.31951 2.44069 9.11787 2.33038 8.90044 2.26335C8.683 2.19632 8.45426 2.17395 8.22796 2.1976C8.00166 2.22124 7.78247 2.2904 7.58359 2.40093C7.3847 2.51145 7.21022 2.66106 7.07064 2.84074C6.93106 3.02043 6.82926 3.22649 6.77136 3.44654C6.71345 3.66658 6.70065 3.89606 6.73371 4.12117C6.76678 4.34629 6.84502 4.5624 6.96375 4.7565L9.29925 8.964C4.3335 11.7405 1.125 16.8502 1.125 22.6575C1.125 24.4867 1.50525 26.2642 2.5065 27.819C3.5145 29.3872 4.959 30.4245 6.54525 31.104C9.51075 32.3775 13.545 32.625 18 32.625C22.455 32.625 26.4893 32.3775 29.4525 31.1062C31.0433 30.4267 32.4855 29.3895 33.4935 27.8212C34.497 26.2665 34.875 24.489 34.875 22.6597ZM4.5 22.6597C4.5 28.125 9 29.25 18 29.25C27 29.25 31.5 28.125 31.5 22.6597C31.5 15.9097 25.875 10.125 18 10.125C10.125 10.125 4.5 15.9075 4.5 22.6575V22.6597ZM23.625 25.3125C23.1774 25.3125 22.7482 25.1347 22.4318 24.8182C22.1153 24.5018 21.9375 24.0726 21.9375 23.625V20.25C21.9375 19.8024 22.1153 19.3732 22.4318 19.0568C22.7482 18.7403 23.1774 18.5625 23.625 18.5625C24.0726 18.5625 24.5018 18.7403 24.8182 19.0568C25.1347 19.3732 25.3125 19.8024 25.3125 20.25V23.625C25.3125 24.0726 25.1347 24.5018 24.8182 24.8182C24.5018 25.1347 24.0726 25.3125 23.625 25.3125ZM10.6875 23.625C10.6875 24.0726 10.8653 24.5018 11.1818 24.8182C11.4982 25.1347 11.9274 25.3125 12.375 25.3125C12.8226 25.3125 13.2518 25.1347 13.5682 24.8182C13.8847 24.5018 14.0625 24.0726 14.0625 23.625V20.25C14.0625 19.8024 13.8847 19.3732 13.5682 19.0568C13.2518 18.7403 12.8226 18.5625 12.375 18.5625C11.9274 18.5625 11.4982 18.7403 11.1818 19.0568C10.8653 19.3732 10.6875 19.8024 10.6875 20.25V23.625Z" fill="white"/>
</svg>
