<svg width="32" height="32" viewBox="0 0 32 32" fill="none" xmlns="http://www.w3.org/2000/svg">
<path fill-rule="evenodd" clip-rule="evenodd" d="M10.6693 6.07066C14.2644 5.79974 17.8756 5.81758 21.4679 6.124L23.6333 6.308C24.4276 6.37593 25.1761 6.70894 25.7584 7.25352C26.3407 7.79809 26.723 8.52261 26.8439 9.31066L26.9799 10.2027C27.4435 13.2265 27.4002 16.3064 26.8519 19.316C26.7208 20.0355 26.3414 20.6863 25.7798 21.1548C25.2182 21.6233 24.51 21.88 23.7786 21.88H11.8106C11.5346 21.88 11.2639 21.948 11.0213 22.0787L5.80659 24.8813C5.6542 24.9632 5.48319 25.0042 5.31025 25.0002C5.1373 24.9962 4.96835 24.9474 4.8199 24.8586C4.67144 24.7698 4.54857 24.644 4.46327 24.4935C4.37797 24.343 4.33317 24.173 4.33325 24V12.644C4.3336 10.9865 4.96009 9.39033 6.08728 8.17512C7.21447 6.95991 8.75913 6.21539 10.4119 6.09066L10.6693 6.07066ZM10.6666 12.6667C10.2246 12.6667 9.80063 12.8423 9.48807 13.1548C9.17551 13.4674 8.99992 13.8913 8.99992 14.3333C8.99992 14.7754 9.17551 15.1993 9.48807 15.5118C9.80063 15.8244 10.2246 16 10.6666 16C11.1086 16 11.5325 15.8244 11.8451 15.5118C12.1577 15.1993 12.3333 14.7754 12.3333 14.3333C12.3333 13.8913 12.1577 13.4674 11.8451 13.1548C11.5325 12.8423 11.1086 12.6667 10.6666 12.6667ZM15.9999 12.6667C15.5579 12.6667 15.134 12.8423 14.8214 13.1548C14.5088 13.4674 14.3333 13.8913 14.3333 14.3333C14.3333 14.7754 14.5088 15.1993 14.8214 15.5118C15.134 15.8244 15.5579 16 15.9999 16C16.4419 16 16.8659 15.8244 17.1784 15.5118C17.491 15.1993 17.6666 14.7754 17.6666 14.3333C17.6666 13.8913 17.491 13.4674 17.1784 13.1548C16.8659 12.8423 16.4419 12.6667 15.9999 12.6667ZM19.6666 14.3333C19.6666 13.8913 19.8422 13.4674 20.1547 13.1548C20.4673 12.8423 20.8912 12.6667 21.3333 12.6667C21.7753 12.6667 22.1992 12.8423 22.5118 13.1548C22.8243 13.4674 22.9999 13.8913 22.9999 14.3333C22.9999 14.7754 22.8243 15.1993 22.5118 15.5118C22.1992 15.8244 21.7753 16 21.3333 16C20.8912 16 20.4673 15.8244 20.1547 15.5118C19.8422 15.1993 19.6666 14.7754 19.6666 14.3333Z" fill="#D3D3D3"/>
</svg>
