<svg width="33" height="32" viewBox="0 0 33 32" fill="none" xmlns="http://www.w3.org/2000/svg">
<path d="M25.6428 6.57143V23.4286C25.6425 23.5714 25.6957 23.7091 25.7919 23.8146C25.8881 23.9201 26.0204 23.9858 26.1626 23.9987C26.3048 24.0116 26.4467 23.9708 26.5603 23.8843C26.6739 23.7978 26.7511 23.6719 26.7765 23.5314L26.7856 23.4286V8H28.2142C28.7161 8.00002 29.1997 8.18876 29.5689 8.52877C29.9382 8.86879 30.1661 9.3352 30.2074 9.83543L30.2142 10V23.7143C30.2143 24.663 29.8513 25.5758 29.1997 26.2654C28.5482 26.955 27.6574 27.3691 26.7102 27.4229L26.4999 27.4286H6.49993C5.5512 27.4286 4.63841 27.0657 3.94881 26.4141C3.25921 25.7625 2.84507 24.8718 2.79136 23.9246L2.78564 23.7143V6.57143C2.78566 6.0695 2.97441 5.58592 3.31442 5.21669C3.65443 4.84747 4.12084 4.61959 4.62107 4.57828L4.78564 4.57143H23.6428C24.1447 4.57145 24.6283 4.76019 24.9975 5.1002C25.3667 5.44021 25.5946 5.90663 25.6359 6.40685L25.6428 6.57143ZM11.6394 14.8617H8.78564C8.28371 14.8617 7.80014 15.0505 7.43091 15.3905C7.06169 15.7305 6.8338 16.1969 6.7925 16.6971L6.78564 16.8617V19.7143C6.78566 20.2162 6.97441 20.6998 7.31442 21.069C7.65443 21.4382 8.12084 21.6661 8.62107 21.7074L8.78564 21.7143H11.6394C12.1415 21.7142 12.6252 21.5253 12.9945 21.1851C13.3637 20.8448 13.5915 20.3781 13.6325 19.8777L13.6382 19.7143V16.8617C13.6385 16.3596 13.4499 15.8757 13.1098 15.5063C12.7698 15.1368 12.3032 14.9087 11.8028 14.8674L11.6394 14.8617ZM20.7856 20H16.7856L16.6691 20.008C16.4639 20.0362 16.2759 20.1378 16.1398 20.2939C16.0037 20.45 15.9288 20.6501 15.9288 20.8571C15.9288 21.0642 16.0037 21.2643 16.1398 21.4204C16.2759 21.5765 16.4639 21.6781 16.6691 21.7063L16.7856 21.7143H20.7856L20.9022 21.7063C21.1074 21.6781 21.2954 21.5765 21.4315 21.4204C21.5676 21.2643 21.6425 21.0642 21.6425 20.8571C21.6425 20.6501 21.5676 20.45 21.4315 20.2939C21.2954 20.1378 21.1074 20.0362 20.9022 20.008L20.7856 20ZM8.78564 16.576H11.6394C11.7036 16.576 11.7659 16.5977 11.8163 16.6375C11.8667 16.6773 11.9022 16.733 11.9171 16.7954L11.9251 16.8617V19.7143C11.925 19.7787 11.9031 19.8411 11.8631 19.8915C11.8231 19.9419 11.7672 19.9773 11.7045 19.992L11.6394 20H8.78564C8.72128 19.9999 8.65883 19.9781 8.60842 19.938C8.55802 19.898 8.52261 19.8421 8.50793 19.7794L8.49993 19.7143V16.8617C8.49978 16.7971 8.5215 16.7344 8.56156 16.6838C8.60161 16.6332 8.65764 16.5976 8.7205 16.5829L8.78564 16.576ZM20.7856 14.8617H16.7856L16.6691 14.8686C16.4631 14.8959 16.274 14.9971 16.137 15.1534C16 15.3097 15.9245 15.5105 15.9245 15.7183C15.9245 15.9261 16 16.1269 16.137 16.2832C16.274 16.4395 16.4631 16.5407 16.6691 16.568L16.7856 16.576H20.7856L20.9022 16.568C21.1082 16.5407 21.2973 16.4395 21.4343 16.2832C21.5712 16.1269 21.6468 15.9261 21.6468 15.7183C21.6468 15.5105 21.5712 15.3097 21.4343 15.1534C21.2973 14.9971 21.1082 14.8959 20.9022 14.8686L20.7856 14.8617ZM20.7856 9.71085H7.64279L7.52622 9.71885C7.32106 9.74708 7.13306 9.84863 6.99697 10.0047C6.86088 10.1608 6.78591 10.3609 6.78591 10.568C6.78591 10.7751 6.86088 10.9752 6.99697 11.1313C7.13306 11.2874 7.32106 11.3889 7.52622 11.4171L7.64279 11.4251H20.7856L20.9022 11.4171C21.1074 11.3889 21.2954 11.2874 21.4315 11.1313C21.5676 10.9752 21.6425 10.7751 21.6425 10.568C21.6425 10.3609 21.5676 10.1608 21.4315 10.0047C21.2954 9.84863 21.1074 9.74708 20.9022 9.71885L20.7856 9.71085Z" fill="#CCCCCC"/>
</svg>
